<svg xmlns="http://www.w3.org/2000/svg" width="500" height="500" viewBox="0 0 500 500" version="1.1"><path d="M 234.250 14.689 C 235.213 14.941, 236.787 14.941, 237.750 14.689 C 238.713 14.438, 237.925 14.232, 236 14.232 C 234.075 14.232, 233.287 14.438, 234.250 14.689 M 237 73.616 C 201.865 76.812, 171.701 88.413, 144.500 109.192 C 133.924 117.271, 114.558 136.190, 117.706 135.367 C 119.230 134.968, 119.579 135.475, 119.644 138.190 C 119.689 140.011, 120.001 142.592, 120.339 143.926 C 120.677 145.260, 120.559 146.835, 120.077 147.426 C 119.548 148.074, 119.768 149.023, 120.631 149.818 C 121.856 150.947, 122.005 150.622, 121.669 147.568 C 121.453 145.606, 121.690 144, 122.197 144 C 122.704 144, 122.865 143.591, 122.556 143.090 C 122.247 142.590, 122.272 141.456, 122.612 140.570 C 123.144 139.182, 123.512 139.273, 125.271 141.229 C 126.577 142.682, 127.103 142.912, 126.732 141.867 C 125.932 139.612, 143.883 122.414, 155.819 114 C 164.883 107.611, 180.144 99.143, 189 95.589 C 193.788 93.667, 211.913 88.031, 213.365 88.011 C 213.840 88.005, 211.498 90.920, 208.160 94.488 C 202.241 100.816, 196.278 108.914, 192.079 116.328 C 187.144 125.044, 186.203 126.936, 182.798 135 C 178.928 144.166, 173 161.512, 173 163.673 C 173 164.403, 172.767 165, 172.482 165 C 171.050 165, 148.845 157.487, 144.500 155.533 C 141.750 154.296, 137.813 152.680, 135.750 151.941 C 133.688 151.203, 132 150.239, 132 149.799 C 132 149.360, 131.213 148.986, 130.250 148.968 C 129.287 148.951, 127.626 148.276, 126.559 147.468 C 125.491 146.661, 124.141 146.007, 123.559 146.015 C 122.976 146.024, 123.175 146.467, 124 147 C 124.949 147.613, 125.052 147.975, 124.281 147.985 C 123.611 147.993, 123.322 148.675, 123.638 149.500 C 123.955 150.325, 124.867 151, 125.666 151 C 126.551 151, 126.832 150.512, 126.387 149.750 C 125.985 149.063, 126.556 149.287, 127.657 150.250 C 128.757 151.213, 130.072 152.015, 130.579 152.034 C 131.085 152.053, 133.162 152.855, 135.193 153.817 C 138.026 155.158, 138.670 155.908, 137.958 157.033 C 137.230 158.185, 137.027 158.209, 137.015 157.143 C 137.007 156.371, 136.375 156.026, 135.551 156.342 C 134.582 156.714, 134.286 156.418, 134.658 155.449 C 135.250 153.905, 133.484 153.409, 132.583 154.866 C 132.289 155.342, 130.947 155.521, 129.601 155.264 C 127.831 154.926, 127.257 154.264, 127.525 152.871 C 127.729 151.813, 127.509 151.185, 127.037 151.477 C 125.582 152.377, 126.564 155.317, 128.585 156.109 C 129.866 156.611, 130.003 156.875, 129 156.907 C 128.175 156.934, 126.375 156.026, 125 154.891 C 123.625 153.755, 123.175 153.157, 124 153.560 C 125.072 154.084, 125.208 153.973, 124.476 153.173 C 123.847 152.485, 122.380 152.339, 120.676 152.795 C 118.105 153.482, 118.671 153.924, 128.286 158.752 C 141.584 165.428, 164.390 174, 168.854 174 C 169.842 174, 170.058 174.781, 169.615 176.750 C 166.213 191.885, 163.988 208.838, 163.545 223 L 163.123 236.500 163.966 225.938 C 165.206 210.420, 165.713 206.306, 167.409 198 C 168.251 193.875, 169.043 188.842, 169.170 186.815 C 169.300 184.737, 169.823 183.391, 170.370 183.729 C 170.930 184.075, 171.070 183.625, 170.701 182.664 C 170.199 181.355, 170.643 181.015, 172.781 181.070 C 175.074 181.130, 175.197 181.259, 173.566 181.898 C 172.237 182.418, 172.003 182.884, 172.816 183.387 C 173.467 183.789, 173.993 184.654, 173.985 185.309 C 173.974 186.106, 173.685 186.051, 173.110 185.143 C 172.132 183.601, 171.560 184.315, 170.619 188.250 C 169.839 191.514, 171.502 192.011, 172.351 188.767 C 172.813 186.999, 173.191 186.791, 174.166 187.766 C 175.140 188.740, 175.146 192.089, 174.192 203.749 C 173.528 211.862, 173.052 221.200, 173.134 224.500 C 173.244 228.962, 173.496 227.715, 174.116 219.631 C 174.575 213.654, 175.641 204.429, 176.485 199.131 C 180.233 175.603, 180.105 175.913, 185.322 177.799 C 187.148 178.460, 189.841 179, 191.307 179 C 192.772 179, 195.890 179.430, 198.236 179.956 C 205.521 181.589, 217.947 182.945, 231.776 183.616 L 245.053 184.260 244.969 212.630 L 244.885 241 209.003 241 L 173.121 241 172.691 237.250 L 172.262 233.500 172.381 237.500 L 172.500 241.500 188 242.118 C 196.525 242.457, 211.986 242.795, 222.357 242.868 C 237.283 242.972, 241.111 243.268, 240.720 244.287 C 240.368 245.205, 241.527 245.632, 244.754 245.772 C 249.096 245.961, 249.213 245.893, 247.613 244.124 C 246.229 242.596, 246.140 241.784, 247.091 239.390 C 247.753 237.722, 248.439 237.043, 248.714 237.784 C 248.975 238.490, 248.736 239.615, 248.181 240.284 C 246.790 241.963, 250.145 245.976, 252.613 245.586 C 253.651 245.421, 253.938 245.480, 253.250 245.717 C 251.767 246.227, 251.556 249, 253 249 C 253.550 249, 254 248.523, 254 247.941 C 254 247.359, 254.412 247.136, 254.915 247.447 C 255.418 247.758, 256.007 247.479, 256.225 246.826 C 256.687 245.438, 260 246.441, 260 247.969 C 260 248.536, 258.891 249, 257.535 249 C 254.683 249, 253.302 251.238, 253.524 255.500 C 253.610 257.150, 253.836 267.387, 254.026 278.250 C 254.216 289.113, 254.754 298, 255.222 298 C 255.689 298, 255.943 287.650, 255.786 274.999 L 255.500 251.998 291.402 251.999 L 327.305 252 326.630 264.618 C 326.043 275.603, 324.271 291.945, 322.332 304.269 C 321.836 307.419, 321.996 307.939, 323.306 307.436 C 324.168 307.105, 324.639 306.224, 324.353 305.478 C 324.067 304.732, 324.307 303.307, 324.886 302.311 C 325.741 300.841, 325.945 301.328, 325.970 304.890 C 325.991 307.939, 325.465 309.673, 324.250 310.568 C 322.592 311.790, 322.597 311.895, 324.351 312.574 C 326.529 313.418, 328.069 311.488, 327.593 308.510 C 327.416 307.405, 327.662 305.454, 328.140 304.175 C 328.746 302.551, 328.554 301.201, 327.504 299.702 C 325.742 297.187, 325.520 294, 327.107 294 C 327.716 294, 327.955 294.675, 327.638 295.500 C 327.322 296.325, 327.485 297, 328 297 C 328.515 297, 328.676 297.680, 328.357 298.511 C 327.941 299.596, 328.235 299.847, 329.400 299.400 C 330.597 298.941, 330.860 299.200, 330.404 300.389 C 330.064 301.275, 330.222 302, 330.754 302 C 331.287 302, 331.509 303.120, 331.247 304.488 C 330.985 305.857, 330.449 306.778, 330.056 306.535 C 329.663 306.292, 329.407 306.993, 329.488 308.093 C 329.691 310.849, 332.820 314.283, 334.530 313.627 C 335.303 313.330, 336.202 313.518, 336.527 314.044 C 336.852 314.570, 338.386 315, 339.937 315 C 341.487 315, 343.373 315.761, 344.128 316.692 C 345.044 317.821, 345.087 318.136, 344.258 317.638 C 343.575 317.227, 342.225 317.369, 341.258 317.953 C 339.769 318.852, 339.916 318.968, 342.212 318.712 C 343.704 318.545, 345.241 318.092, 345.629 317.704 C 346.960 316.373, 348.244 317.001, 347.074 318.411 C 346.172 319.498, 346.201 320.008, 347.201 320.633 C 349.533 322.089, 351.477 321.964, 352.750 320.275 C 353.878 318.780, 354 318.775, 354 320.226 C 354 321.110, 353.438 322.044, 352.750 322.302 C 351.882 322.627, 352.111 323.265, 353.500 324.388 L 355.500 326.005 353.500 325.347 C 352.400 324.985, 351.050 324.348, 350.500 323.930 C 349.435 323.121, 348.907 323, 346.441 323 C 345.584 323, 345.104 322.640, 345.376 322.200 C 345.819 321.483, 344.048 321.145, 338.771 320.940 C 337.820 320.903, 337.145 320.406, 337.271 319.836 C 337.397 319.267, 335.602 318.716, 333.283 318.614 C 328.584 318.407, 328.322 318.762, 325.998 328.500 C 325.342 331.250, 324.555 334.175, 324.249 335 C 323.943 335.825, 323.606 336.950, 323.499 337.500 C 323.392 338.050, 323.202 338.725, 323.076 339 C 322.950 339.275, 322.710 340.175, 322.543 341 C 322.376 341.825, 320.636 346.763, 318.675 351.972 C 316.715 357.182, 315.266 361.600, 315.456 361.789 C 316.103 362.436, 324.079 340.706, 326.724 331.092 C 328.175 325.816, 329.661 321.142, 330.027 320.704 C 331.678 318.727, 364.205 331.372, 376.291 338.689 C 381.343 341.747, 381.921 342.406, 380.818 343.848 C 371.859 355.551, 363.255 364.828, 356.778 369.767 C 354.174 371.753, 352.244 373.577, 352.488 373.822 C 353.372 374.705, 375.627 354.081, 375.226 352.750 C 375.102 352.338, 375.620 352, 376.378 352 C 377.135 352, 378.373 351.239, 379.128 350.308 C 380.310 348.850, 380.293 348.731, 379 349.444 C 378.175 349.899, 378.712 349.008, 380.194 347.464 C 381.675 345.921, 384.003 344.609, 385.367 344.549 C 386.730 344.490, 387.653 344.753, 387.417 345.135 C 387.181 345.517, 387.328 346.019, 387.744 346.251 C 388.160 346.483, 387.952 346.541, 387.282 346.380 C 386.612 346.219, 385.810 346.498, 385.500 347 C 385.190 347.502, 384.202 347.631, 383.304 347.286 C 382.220 346.871, 381.913 347.049, 382.388 347.819 C 382.857 348.577, 382.564 348.770, 381.541 348.377 C 380.411 347.944, 380.147 348.219, 380.589 349.370 C 381.074 350.634, 381.618 350.740, 383.221 349.882 C 384.684 349.099, 385.054 349.104, 384.562 349.900 C 384.188 350.505, 384.471 351.015, 385.191 351.033 C 385.962 351.053, 385.593 351.824, 384.293 352.909 C 383.078 353.923, 382.366 355.033, 382.709 355.376 C 383.052 355.719, 382.839 356, 382.234 356 C 381.629 356, 380.817 357.012, 380.428 358.250 C 380.039 359.488, 374.947 365.188, 369.111 370.917 C 358.994 380.849, 358.907 381.876, 368.956 372.731 C 374.384 367.791, 386.486 354.150, 390.009 349 C 391.326 347.075, 392.719 345.275, 393.104 345 C 394.363 344.101, 405.091 324.983, 408.103 318.271 C 420.001 291.752, 425.050 263.856, 422.989 236.029 C 421.090 210.395, 416.521 192.996, 406.042 171.500 C 401.070 161.300, 391.191 144.664, 389.118 143 C 388.775 142.725, 386.574 139.972, 384.227 136.881 C 378.141 128.869, 361.951 113.545, 352 106.379 C 330.028 90.555, 306.084 80.373, 280.500 75.972 C 268.957 73.987, 246.373 72.763, 237 73.616 M 238 86.256 C 230.556 89.036, 225.602 92.273, 218.633 98.912 C 206.635 110.340, 193.368 133.837, 186.399 156 C 185.621 158.475, 184.497 161.996, 183.900 163.825 C 183.304 165.654, 182.970 167.298, 183.158 167.479 C 183.346 167.661, 189.125 168.783, 196 169.974 C 211.578 172.673, 242.041 175.133, 243.672 173.824 C 244.544 173.126, 244.785 161.594, 244.611 128.964 C 244.482 104.807, 244.179 84.854, 243.938 84.623 C 243.697 84.392, 241.025 85.127, 238 86.256 M 255.770 129.271 L 255.500 174.500 270 173.764 C 282.495 173.130, 315.687 168.646, 316.905 167.428 C 317.134 167.199, 316.168 163.522, 314.758 159.256 C 305.733 131.949, 294.573 111.681, 281.780 99.363 C 274.397 92.254, 269.606 89.098, 261.770 86.178 L 256.040 84.043 255.770 129.271 M 291.563 93.750 C 304.904 107.650, 316.862 130.271, 325.527 158 C 326.472 161.025, 327.528 163.798, 327.873 164.162 C 328.446 164.767, 349.801 158.322, 354.500 156.125 C 369.081 149.311, 375.960 145.873, 376.382 145.190 C 377.140 143.965, 363.149 129.129, 354.245 121.715 C 336.447 106.897, 315.498 95.934, 292.846 89.585 C 289.736 88.713, 286.934 88, 286.619 88 C 286.303 88, 288.528 90.588, 291.563 93.750 M 114.448 141.319 C 114.937 143.628, 116.226 146, 116.990 146 C 117.417 146, 118.009 145.074, 118.305 143.943 C 118.730 142.316, 118.564 142.117, 117.510 142.991 C 116.681 143.680, 115.953 143.733, 115.583 143.134 C 115.255 142.604, 115.530 141.990, 116.193 141.769 C 116.981 141.506, 116.844 141.154, 115.798 140.753 C 114.842 140.386, 114.298 140.614, 114.448 141.319 M 110.500 147 C 110.160 147.550, 110.385 148, 111 148 C 111.615 148, 111.797 148.520, 111.405 149.155 C 110.953 149.885, 111.131 150.037, 111.889 149.568 C 112.548 149.161, 113.754 149.381, 114.568 150.056 C 115.382 150.732, 116.327 151.006, 116.667 150.666 C 117.008 150.326, 116.547 149.763, 115.643 149.417 C 114.739 149.070, 114 148.159, 114 147.393 C 114 145.794, 111.424 145.505, 110.500 147 M 371.106 159.141 C 360.738 164.341, 346.737 169.747, 335 173.082 C 332.525 173.785, 330.394 174.423, 330.264 174.499 C 330.135 174.576, 330.694 177.757, 331.506 181.569 C 334.857 197.284, 338.784 233.119, 337.749 238.534 L 337.277 241 375.147 241 L 413.017 241 412.449 235.250 C 410.107 211.585, 405.010 192.877, 395.962 174.740 C 391.328 165.450, 384.550 154.323, 383.152 153.711 C 382.793 153.554, 377.372 155.998, 371.106 159.141 M 138.527 157.956 C 138.202 158.482, 137.275 158.659, 136.468 158.349 C 135.554 157.999, 135 158.390, 135 159.387 C 135 160.643, 135.774 160.889, 138.595 160.528 C 141.528 160.152, 141.983 160.316, 141.069 161.417 C 140.224 162.435, 140.299 162.901, 141.377 163.314 C 143.419 164.098, 144.091 163.039, 142.930 160.869 C 142.195 159.495, 142.270 158.996, 143.215 158.985 C 144.118 158.974, 144.055 158.682, 143 158 C 141.078 156.758, 139.278 156.740, 138.527 157.956 M 146.700 160.810 L 148.900 162.739 146.700 163.901 C 145.177 164.705, 145.077 164.893, 146.377 164.514 C 147.409 164.212, 148.917 164.516, 149.728 165.189 C 151.877 166.972, 154 167.048, 154 165.340 C 154 163.579, 151.492 160.841, 150.650 161.683 C 150.327 162.006, 148.811 161.508, 147.281 160.576 L 144.500 158.881 146.700 160.810 M 313.500 178.032 C 311.850 178.487, 307.125 179.358, 303 179.967 C 298.875 180.576, 292.800 181.492, 289.500 182.002 C 286.200 182.513, 277.200 183.216, 269.500 183.565 L 255.500 184.199 255.500 212.599 L 255.500 241 291.396 241 L 327.292 241 326.595 228.250 C 325.841 214.458, 323.866 198.344, 321.327 185.250 C 319.613 176.416, 319.554 176.362, 313.500 178.032 M 108.315 241.749 C 118.664 241.912, 135.314 241.911, 145.315 241.748 C 155.317 241.585, 146.850 241.452, 126.500 241.453 C 106.150 241.453, 97.967 241.586, 108.315 241.749 M 250.205 242.375 C 250.912 243.131, 252.134 243.502, 252.922 243.200 C 254.028 242.775, 253.916 242.479, 252.427 241.895 C 249.455 240.731, 248.802 240.872, 250.205 242.375 M 244.406 249.151 C 243.805 250.125, 247.266 249.975, 206 250.817 L 172.500 251.500 172.367 253.765 C 172.256 255.650, 172.310 255.692, 172.686 254.015 C 173.130 252.041, 173.864 252, 209.070 252 L 245 252 245 275.667 C 245 288.683, 245.177 299.146, 245.394 298.917 C 245.610 298.688, 245.978 287.677, 246.211 274.449 C 246.445 261.222, 246.923 249.934, 247.274 249.366 C 247.625 248.798, 247.237 248.333, 246.412 248.333 C 245.587 248.333, 244.685 248.701, 244.406 249.151 M 108.750 251.749 C 118.788 251.912, 135.213 251.912, 145.250 251.749 C 155.288 251.585, 147.075 251.452, 127 251.452 C 106.925 251.452, 98.713 251.585, 108.750 251.749 M 337.816 256.250 C 338.408 263.857, 334.142 301.867, 332.091 307.261 C 331.152 309.729, 331.294 309.815, 342.320 313.414 C 348.469 315.422, 354.625 317.561, 356 318.166 C 357.375 318.772, 359.400 319.636, 360.500 320.087 C 369.070 323.599, 376.524 327.274, 381.385 330.383 C 384.536 332.399, 387.438 333.847, 387.835 333.602 C 388.888 332.951, 400.437 309.437, 402.864 303 C 407.345 291.119, 410.966 274.491, 412.501 258.750 L 413.159 252 375.322 252 L 337.486 252 337.816 256.250 M 163.360 265 C 163.360 270.225, 163.529 272.363, 163.735 269.750 C 163.941 267.137, 163.941 262.863, 163.735 260.250 C 163.529 257.637, 163.360 259.775, 163.360 265 M 268 300.972 C 269.925 301.477, 274.650 302.152, 278.500 302.474 C 291.637 303.570, 310.954 306.538, 314.500 308.005 C 317.848 309.391, 321 309.860, 321 308.974 C 321 307.930, 319.432 307.451, 310 305.609 C 299.700 303.598, 289.898 302.216, 281 301.523 C 276.875 301.201, 271.475 300.739, 269 300.496 C 264.714 300.076, 264.667 300.098, 268 300.972 M 221.750 301.706 C 222.988 301.944, 225.012 301.944, 226.250 301.706 C 227.488 301.467, 226.475 301.272, 224 301.272 C 221.525 301.272, 220.512 301.467, 221.750 301.706 M 276 309.941 C 276 310.523, 276.788 311.008, 277.750 311.017 C 281.521 311.055, 297.809 312.990, 299.359 313.584 C 300.271 313.934, 301 313.722, 301 313.107 C 301 312.498, 300.663 312.086, 300.250 312.190 C 299.837 312.295, 298.150 312.090, 296.500 311.734 C 294.850 311.378, 289.909 310.805, 285.519 310.460 C 281.130 310.115, 277.193 309.619, 276.769 309.357 C 276.346 309.096, 276 309.359, 276 309.941 M 254.982 316.298 L 255.463 321.500 255.796 317.114 C 255.979 314.702, 255.762 312.361, 255.314 311.912 C 254.866 311.464, 254.717 313.437, 254.982 316.298 M 302 312.992 C 302 313.421, 304.137 314.080, 306.750 314.454 C 309.363 314.829, 313.226 315.638, 315.336 316.252 C 318.737 317.242, 319.113 317.660, 318.647 319.934 C 317.232 326.841, 316.790 328.653, 316.072 330.500 C 314.420 334.749, 311.772 342.591, 311.345 344.500 C 310.472 348.402, 316.102 334.411, 317.583 329 C 318.410 325.975, 319.518 322.719, 320.044 321.764 C 321.841 318.500, 321.162 316.078, 318.250 315.365 C 316.738 314.995, 315.169 314.199, 314.765 313.596 C 314.264 312.849, 314.026 312.909, 314.015 313.785 C 314.003 314.778, 313.525 314.816, 311.914 313.954 C 310.767 313.340, 309.620 313.047, 309.364 313.302 C 309.109 313.558, 307.347 313.417, 305.450 312.989 C 303.552 312.561, 302 312.562, 302 312.992 M 245.343 326.500 C 245.346 330.900, 245.522 332.576, 245.733 330.224 C 245.945 327.872, 245.942 324.272, 245.727 322.224 C 245.512 320.176, 245.339 322.100, 245.343 326.500 M 360.667 323.414 C 361.132 324.737, 360.979 325.105, 360.170 324.605 C 359.526 324.207, 359 324.414, 359 325.063 C 359 325.936, 358.602 325.914, 357.477 324.981 C 356.204 323.924, 356.057 323.986, 356.584 325.359 C 356.931 326.261, 357.841 327, 358.607 327 C 359.373 327, 360 327.388, 360 327.861 C 360 329.013, 364.857 328.040, 365.669 326.726 C 366.039 326.127, 365.822 325.992, 365.155 326.405 C 364.452 326.839, 364 326.442, 364 325.392 C 364 324.443, 363.707 323.960, 363.349 324.318 C 362.991 324.676, 362.090 324.188, 361.346 323.234 C 360.089 321.621, 360.042 321.633, 360.667 323.414 M 366 330.031 C 366 330.529, 365.212 330.655, 364.250 330.309 C 363.288 329.964, 362.777 329.992, 363.115 330.372 C 364.286 331.688, 367.876 331.855, 368.885 330.639 C 369.620 329.752, 369.364 329.378, 367.949 329.271 C 366.877 329.190, 366 329.532, 366 330.031 M 370.033 331.728 C 368.722 333.204, 368.758 333.307, 370.365 332.690 C 371.354 332.311, 372.352 332, 372.582 332 C 372.812 332, 373 331.550, 373 331 C 373 329.529, 371.703 329.847, 370.033 331.728 M 375.279 333.048 C 375.428 335.034, 377.464 335.004, 379.260 332.988 C 380.214 331.917, 380.054 331.931, 378.563 333.048 C 376.844 334.337, 376.692 334.322, 377.217 332.917 C 377.572 331.969, 377.275 331.333, 376.479 331.333 C 375.748 331.333, 375.208 332.105, 375.279 333.048 M 382 334.059 C 382 334.641, 381.581 334.859, 381.069 334.543 C 379.490 333.567, 379.105 335.423, 380.493 337.321 C 381.323 338.456, 382.050 338.729, 382.463 338.060 C 382.823 337.477, 382.615 337, 382 337 C 381.385 337, 381.165 336.543, 381.510 335.984 C 381.856 335.425, 382.552 335.223, 383.058 335.536 C 383.563 335.848, 383.709 335.406, 383.382 334.552 C 382.695 332.764, 382 332.516, 382 334.059 M 387 340.500 C 386.293 341.352, 385.940 342.273, 386.215 342.548 C 386.490 342.823, 387.293 342.352, 388 341.500 C 388.707 340.648, 389.060 339.727, 388.785 339.452 C 388.510 339.177, 387.707 339.648, 387 340.500 M 309.111 350.111 C 308.495 351.878, 308.166 353.499, 308.380 353.713 C 308.594 353.927, 309.273 352.656, 309.889 350.889 C 310.505 349.122, 310.834 347.501, 310.620 347.287 C 310.406 347.073, 309.727 348.344, 309.111 350.111 M 357 381.784 C 357 382.216, 355.762 383.301, 354.250 384.196 C 351.055 386.087, 346.395 390, 347.338 390 C 348.288 390, 357.444 382.921, 357.833 381.886 C 358.017 381.399, 357.904 381, 357.583 381 C 357.262 381, 357 381.353, 357 381.784 M 339 394.500 C 332.148 398.804, 333.043 399.096, 340.206 394.894 C 346.168 391.396, 346.714 390.991, 345.417 391.023 C 344.913 391.035, 342.025 392.600, 339 394.500" stroke="none" fill="#0b8807" fill-rule="evenodd"/><path d="M 234.145 1.644 C 231.903 2.141, 231.824 2.439, 232.492 7.833 C 232.877 10.950, 233.383 13.696, 233.615 13.935 C 233.847 14.175, 243.816 14.732, 255.769 15.173 C 267.721 15.615, 279.975 16.383, 283 16.881 C 293.131 18.547, 299.447 19.873, 307 21.920 C 311.125 23.038, 314.766 23.964, 315.092 23.976 C 315.996 24.012, 319.408 12.075, 318.697 11.364 C 317.547 10.214, 295.582 5.243, 284.414 3.605 C 273.453 1.997, 238.669 0.641, 234.145 1.644 M 181.500 10.633 C 124.494 27.421, 77.781 61.684, 45.192 110.609 C 37.491 122.169, 28.661 138.643, 29.466 139.945 C 30.101 140.973, 38.583 145, 40.113 145 C 40.585 145, 42.313 142.342, 43.953 139.094 C 47.527 132.012, 56.904 116.298, 59.225 113.500 C 60.137 112.400, 63.626 107.833, 66.977 103.350 C 70.328 98.868, 77.667 90.514, 83.285 84.787 C 115.147 52.304, 153.521 30.512, 196.372 20.567 C 199.180 19.916, 199.230 19.789, 198.586 14.938 C 197.716 8.381, 197.109 6.990, 195.143 7.049 C 194.239 7.076, 188.100 8.689, 181.500 10.633 M 348.517 28.967 C 347.133 31.698, 346 34.346, 346 34.849 C 346 35.353, 348.587 37.017, 351.750 38.548 C 377.275 50.898, 404.369 71.845, 423.146 93.745 C 439.239 112.515, 443.814 119.304, 454.634 140.476 C 465.717 162.162, 473.997 188.084, 478.120 214 C 479.883 225.081, 479.896 266.651, 478.139 277 C 471.690 315.007, 460.811 343.690, 442.038 372.186 C 438.717 377.227, 436 381.839, 436 382.435 C 436 383.485, 437.168 384.371, 443.513 388.132 L 446.527 389.918 450.605 383.709 C 459.761 369.768, 461.388 366.983, 467.382 355 C 483.583 322.607, 491.303 293.061, 493.514 255 C 495.226 225.510, 488.296 185.181, 476.416 155.500 C 457.750 108.864, 425.857 69.739, 383.500 41.515 C 373.350 34.751, 353.959 24, 351.910 24 C 351.428 24, 349.901 26.235, 348.517 28.967 M 231.500 25.589 C 212.623 26.716, 187.230 32.724, 166.500 40.968 C 155.528 45.331, 133 57.117, 133 58.494 C 133 59.112, 133.625 60.472, 134.388 61.516 C 135.737 63.361, 135.884 63.344, 139.638 60.913 C 144.866 57.528, 156.093 51.789, 164 48.459 C 170.052 45.911, 188.612 39.290, 192 38.471 C 238.194 27.302, 273.620 28.559, 320.296 43.021 C 322.743 43.779, 323.212 43.573, 324.046 41.378 C 324.571 39.999, 325 38.694, 325 38.478 C 325 37.393, 303.808 31.583, 291 29.158 C 287.975 28.585, 283.025 27.641, 280 27.061 C 274.242 25.956, 241.828 24.972, 231.500 25.589 M 225 40.662 C 223.075 40.850, 218.800 41.500, 215.500 42.107 C 212.200 42.714, 208.375 43.403, 207 43.638 C 185.894 47.238, 153.912 60.799, 132.939 75.041 C 114.053 87.867, 92.549 108.941, 80.507 126.425 C 76.011 132.954, 75.703 132.307, 86.610 139.251 L 93.720 143.778 99.587 135.639 C 107.115 125.198, 128.112 104.230, 138.782 96.500 C 165.277 77.304, 197.453 64.707, 228.291 61.456 L 234.082 60.846 233.500 54.673 C 232.224 41.148, 231.960 39.992, 230.189 40.160 C 229.260 40.248, 226.925 40.474, 225 40.662 M 353.200 53.200 C 351.443 54.957, 351.736 57.683, 353.750 58.322 C 355.365 58.834, 359.990 61.458, 362.458 63.262 C 363.031 63.682, 366.112 65.757, 369.305 67.874 C 379.677 74.752, 390.928 84.137, 401.626 94.836 C 411.316 104.526, 412.233 105.196, 413.740 103.689 C 415.140 102.289, 415.183 101.710, 414.043 99.581 C 411.662 95.131, 393.699 78.406, 380.124 68 C 376.295 65.064, 355.753 52.012, 354.950 52.005 C 354.647 52.002, 353.860 52.540, 353.200 53.200 M 244.328 92.500 C 244.333 96.350, 244.513 97.802, 244.730 95.728 C 244.946 93.653, 244.943 90.503, 244.722 88.728 C 244.501 86.952, 244.324 88.650, 244.328 92.500 M 79.965 103.777 C 54.831 133.948, 37.080 172.458, 31.607 208.686 C 27.008 239.133, 26.921 252.845, 31.152 280.500 C 33.472 295.665, 40.502 321.001, 42.582 321.694 C 43.132 321.877, 44.397 321.431, 45.393 320.702 C 47.130 319.432, 47.100 319.041, 44.666 311.338 C 37.492 288.627, 34.797 270.877, 34.746 246 C 34.700 223.446, 36.414 209.874, 41.973 188.792 C 49.630 159.753, 66.495 128.080, 86.498 105.173 C 92.086 98.774, 92.359 97.798, 89.060 96.032 C 87.512 95.204, 86.116 96.392, 79.965 103.777 M 244.300 118 C 244.300 121.025, 244.487 122.263, 244.716 120.750 C 244.945 119.237, 244.945 116.763, 244.716 115.250 C 244.487 113.737, 244.300 114.975, 244.300 118 M 431.750 127.080 C 429.330 128.490, 429.482 129.180, 433.771 136.268 C 448.119 159.980, 456.887 185.564, 462.124 219 C 463.632 228.628, 463.625 262.255, 462.113 272 C 458.468 295.492, 455.385 306.966, 447.201 327.500 C 431.817 366.097, 404.247 399.713, 368 424.069 C 358.241 430.627, 334.649 443.139, 329.750 444.355 C 326.716 445.109, 326.295 446.654, 328.358 449.474 C 329.645 451.236, 330.474 450.960, 344.445 444.128 C 400.369 416.782, 439.725 371.723, 458.997 312.976 C 476.108 260.817, 472.448 202.171, 448.968 152.263 C 444.023 141.754, 435.057 125.976, 434.059 126.030 C 433.752 126.047, 432.712 126.519, 431.750 127.080 M 113.907 138.250 C 104.018 149.036, 89.430 176.076, 84.640 192.500 C 84.480 193.050, 83.421 196.650, 82.287 200.500 C 71.671 236.545, 74.865 278.921, 91.002 316.128 C 94.315 323.765, 105.276 343.543, 107.003 345 C 107.330 345.275, 108.693 347.075, 110.034 349 C 133.068 382.074, 174.670 408.702, 216 416.827 C 234.153 420.395, 257.681 421.056, 273.500 418.442 C 278.450 417.624, 284.075 416.703, 286 416.395 C 287.925 416.087, 292.650 414.877, 296.500 413.706 C 300.350 412.535, 303.837 411.672, 304.250 411.789 C 304.663 411.905, 305 411.550, 305 411 C 305 410.450, 305.337 410.074, 305.750 410.164 C 306.815 410.397, 312.308 408.863, 313.500 408 C 314.050 407.602, 315.738 406.980, 317.250 406.619 C 318.762 406.258, 320 405.520, 320 404.981 C 320 404.441, 320.684 404, 321.520 404 C 322.356 404, 324.781 402.901, 326.910 401.557 C 329.039 400.213, 331.055 399.388, 331.390 399.723 C 331.726 400.059, 332 399.733, 332 399 C 332 398.267, 332.273 397.940, 332.606 398.273 C 332.940 398.607, 334.035 398.119, 335.040 397.190 C 336.046 396.260, 339.019 394.375, 341.648 393 C 344.278 391.625, 347.486 389.479, 348.779 388.231 C 350.072 386.983, 351.620 386.265, 352.219 386.635 C 352.871 387.039, 353.022 386.845, 352.595 386.155 C 352.203 385.520, 352.274 385, 352.752 385 C 353.231 385, 354.608 384.082, 355.811 382.961 C 357.015 381.840, 358.007 381.277, 358.015 381.711 C 358.024 382.145, 358.457 381.825, 358.979 381 C 359.500 380.175, 360.506 379.500, 361.214 379.500 C 361.921 379.500, 362.500 378.981, 362.500 378.347 C 362.500 377.713, 363.958 375.801, 365.741 374.097 C 369.039 370.946, 370.694 370.068, 369.405 372.155 C 368.959 372.876, 369.131 373.037, 369.862 372.585 C 370.506 372.187, 370.790 371.470, 370.494 370.991 C 369.831 369.918, 374.001 365.883, 375.082 366.551 C 375.511 366.816, 376.187 366.506, 376.585 365.862 C 377.037 365.131, 376.876 364.959, 376.155 365.405 C 373.802 366.858, 375.092 363.986, 377.500 362.408 C 378.875 361.507, 380 360.179, 380 359.456 C 380 358.734, 380.707 357.436, 381.571 356.571 C 382.436 355.707, 382.836 355, 382.461 355 C 382.085 355, 382.841 354.115, 384.139 353.033 C 385.477 351.919, 385.933 351.052, 385.191 351.033 C 384.471 351.015, 384.188 350.505, 384.562 349.900 C 385.054 349.104, 384.684 349.099, 383.221 349.882 C 381.618 350.740, 381.074 350.634, 380.589 349.370 C 380.147 348.219, 380.411 347.944, 381.541 348.377 C 382.564 348.770, 382.857 348.577, 382.388 347.819 C 381.913 347.049, 382.220 346.871, 383.304 347.286 C 384.202 347.631, 385.190 347.502, 385.500 347 C 385.810 346.498, 386.612 346.219, 387.282 346.380 C 387.952 346.541, 388.160 346.483, 387.744 346.251 C 387.328 346.019, 387.181 345.517, 387.417 345.135 C 387.653 344.753, 386.755 344.488, 385.422 344.547 C 382.765 344.663, 377.745 348.778, 378.591 350.147 C 378.882 350.618, 377.968 351.442, 376.560 351.977 C 375.152 352.512, 374 353.213, 374 353.534 C 374 353.855, 374.563 353.833, 375.250 353.485 C 375.938 353.137, 375.646 353.546, 374.603 354.394 C 373.559 355.242, 372.311 355.692, 371.828 355.394 C 371.345 355.095, 371.074 355.427, 371.225 356.130 C 371.376 356.834, 370.868 357.430, 370.095 357.455 C 369.323 357.480, 368.565 358.355, 368.412 359.400 C 368.105 361.493, 366.061 363.156, 364.773 362.360 C 364.321 362.080, 364.074 362.447, 364.225 363.176 C 364.376 363.904, 363.904 364.376, 363.176 364.225 C 362.447 364.074, 362.112 364.372, 362.430 364.887 C 363.177 366.095, 355.539 372.181, 354.480 371.223 C 354.039 370.825, 354.005 371.066, 354.403 371.757 C 354.841 372.518, 354.411 373.283, 353.313 373.695 C 352.316 374.070, 350.904 375.079, 350.176 375.938 C 349.086 377.224, 348.972 377.235, 349.536 376 C 349.912 375.175, 349.061 375.850, 347.646 377.500 C 346.230 379.150, 345.056 380.076, 345.036 379.559 C 345.016 379.041, 344.339 379.491, 343.532 380.559 C 342.724 381.626, 342.049 382.062, 342.032 381.527 C 342.014 380.993, 341.335 381.504, 340.523 382.663 C 339.711 383.823, 337.799 385.084, 336.273 385.467 C 334.748 385.849, 332.686 387.036, 331.690 388.103 C 330.695 389.171, 329.458 389.783, 328.940 389.463 C 328.423 389.144, 328 389.385, 328 390 C 328 390.615, 327.550 390.840, 327 390.500 C 326.450 390.160, 326 390.385, 326 391 C 326 391.615, 325.550 391.840, 325 391.500 C 324.450 391.160, 324 391.304, 324 391.820 C 324 392.719, 318.857 395.252, 316.248 395.638 C 315.559 395.740, 313.084 396.727, 310.748 397.831 C 306.126 400.016, 298.448 402.687, 294.799 403.380 C 293.534 403.620, 291.200 404.320, 289.611 404.936 C 288.023 405.552, 286.568 405.902, 286.380 405.713 C 286.191 405.524, 287.828 403.620, 290.018 401.482 C 292.208 399.344, 294 397.214, 294 396.749 C 294 396.285, 295.046 394.913, 296.325 393.702 C 297.603 392.491, 298.939 390.713, 299.293 389.750 C 299.647 388.788, 300.428 388, 301.028 388 C 301.627 388, 301.840 387.550, 301.500 387 C 301.160 386.450, 301.359 386, 301.941 386 C 302.523 386, 303 385.487, 303 384.860 C 303 384.233, 303.788 383.075, 304.750 382.286 C 305.713 381.497, 305.849 381.191, 305.053 381.606 C 304.191 382.056, 304.504 381.102, 305.826 379.244 C 307.047 377.530, 309.428 373.174, 311.117 369.564 C 312.806 365.954, 314.623 363, 315.153 363 C 315.684 363, 315.885 362.623, 315.601 362.163 C 315.027 361.235, 320.411 346.744, 321.080 347.413 C 321.311 347.644, 321.567 346.858, 321.649 345.667 C 321.787 343.669, 322.531 340.190, 323.076 339 C 323.202 338.725, 323.392 338.050, 323.499 337.500 C 323.606 336.950, 323.943 335.825, 324.249 335 C 324.555 334.175, 325.342 331.250, 325.998 328.500 C 328.297 318.866, 328.620 318.412, 333.056 318.571 C 335.251 318.650, 337.374 319.075, 337.774 319.517 C 338.173 319.959, 337.868 319.954, 337.095 319.506 C 336.182 318.976, 335.926 319.072, 336.365 319.782 C 336.736 320.382, 337.818 320.869, 338.770 320.864 C 341.323 320.852, 343.126 321.382, 346.767 323.217 C 348.679 324.181, 349.740 324.373, 349.325 323.682 C 348.797 322.802, 348.985 322.780, 350.058 323.595 C 350.851 324.197, 352.400 324.985, 353.500 325.347 L 355.500 326.005 353.500 324.388 C 352.111 323.265, 351.882 322.627, 352.750 322.302 C 353.437 322.044, 354 321.110, 354 320.226 C 354 318.775, 353.878 318.780, 352.750 320.275 C 351.477 321.964, 349.533 322.089, 347.201 320.633 C 346.201 320.008, 346.172 319.498, 347.074 318.411 C 348.244 317.001, 346.960 316.373, 345.629 317.704 C 345.241 318.092, 343.704 318.545, 342.212 318.712 C 339.916 318.968, 339.769 318.852, 341.258 317.953 C 342.225 317.369, 343.575 317.227, 344.258 317.638 C 345.087 318.136, 345.044 317.821, 344.128 316.692 C 343.373 315.761, 341.487 315, 339.937 315 C 338.386 315, 336.852 314.570, 336.527 314.044 C 336.202 313.518, 335.303 313.330, 334.530 313.627 C 332.820 314.283, 329.691 310.849, 329.488 308.093 C 329.407 306.993, 329.663 306.292, 330.056 306.535 C 330.449 306.778, 330.985 305.857, 331.247 304.488 C 331.509 303.120, 331.287 302, 330.754 302 C 330.222 302, 330.064 301.275, 330.404 300.389 C 330.860 299.200, 330.597 298.941, 329.400 299.400 C 328.235 299.847, 327.941 299.596, 328.357 298.511 C 328.676 297.680, 328.515 297, 328 297 C 327.485 297, 327.322 296.325, 327.638 295.500 C 327.955 294.675, 327.716 294, 327.107 294 C 325.520 294, 325.742 297.187, 327.504 299.702 C 328.554 301.201, 328.746 302.551, 328.140 304.175 C 327.662 305.454, 327.416 307.405, 327.593 308.510 C 328.069 311.488, 326.529 313.418, 324.351 312.574 C 322.597 311.895, 322.592 311.790, 324.250 310.568 C 325.465 309.673, 325.991 307.939, 325.970 304.890 C 325.945 301.328, 325.741 300.841, 324.886 302.311 C 324.307 303.307, 324.067 304.732, 324.353 305.478 C 324.639 306.224, 324.227 307.083, 323.437 307.386 C 322.647 307.689, 322 307.515, 322 307 C 322 306.485, 321.235 306.356, 320.301 306.715 C 319.238 307.123, 319.050 307.517, 319.801 307.767 C 320.460 307.987, 321 308.537, 321 308.990 C 321 309.863, 317.826 309.382, 314.500 308.005 C 310.792 306.471, 291.051 303.480, 277.744 302.436 C 273.478 302.102, 270.174 301.528, 270.401 301.161 C 270.627 300.794, 267.480 300.509, 263.407 300.528 C 258.035 300.552, 256 300.210, 256 299.281 C 256 298.576, 255.634 298, 255.186 298 C 254.738 298, 254.216 289.113, 254.026 278.250 C 253.836 267.387, 253.614 257.150, 253.533 255.500 C 253.341 251.582, 253.956 249.855, 255.259 250.660 C 255.872 251.039, 256.012 250.829, 255.595 250.155 C 255.127 249.397, 255.761 249, 257.441 249 C 258.848 249, 260 248.536, 260 247.969 C 260 246.441, 256.687 245.438, 256.225 246.826 C 256.007 247.479, 255.418 247.758, 254.915 247.447 C 254.412 247.136, 254 247.359, 254 247.941 C 254 248.523, 253.550 249, 253 249 C 251.556 249, 251.767 246.227, 253.250 245.717 C 253.938 245.480, 253.651 245.421, 252.613 245.586 C 250.145 245.976, 246.790 241.963, 248.181 240.284 C 248.736 239.615, 248.975 238.490, 248.714 237.784 C 248.439 237.043, 247.753 237.722, 247.091 239.390 C 246.140 241.784, 246.229 242.596, 247.613 244.124 C 249.213 245.893, 249.096 245.961, 244.754 245.772 C 241.863 245.646, 240.383 245.166, 240.659 244.445 C 240.973 243.628, 231.769 243.120, 207.371 242.608 C 188.824 242.219, 173.248 241.654, 172.759 241.351 C 171.851 240.790, 172.121 233.986, 174.193 205.233 C 175.110 192.509, 175.101 188.701, 174.150 187.750 C 173.196 186.796, 172.809 187.015, 172.351 188.767 C 171.502 192.011, 169.839 191.514, 170.619 188.250 C 171.560 184.315, 172.132 183.601, 173.110 185.143 C 173.685 186.051, 173.974 186.106, 173.985 185.309 C 173.993 184.654, 173.467 183.789, 172.816 183.387 C 172.003 182.884, 172.237 182.418, 173.566 181.898 C 175.197 181.259, 175.074 181.130, 172.781 181.070 C 170.643 181.015, 170.199 181.355, 170.701 182.664 C 171.070 183.625, 170.930 184.075, 170.370 183.729 C 169.823 183.391, 169.300 184.737, 169.170 186.815 C 169.043 188.842, 168.263 193.817, 167.436 197.870 C 165.443 207.644, 165.236 209.382, 164.327 224 C 163.756 233.172, 163.381 235.435, 162.917 232.500 L 162.284 228.500 162.142 233.309 C 162.054 236.292, 162.380 237.883, 163 237.500 C 163.550 237.160, 164 237.332, 164 237.882 C 164 238.432, 163.543 239.165, 162.984 239.510 C 162.425 239.856, 162.226 240.557, 162.543 241.069 C 162.894 241.637, 148.810 242, 126.408 242 L 89.698 242 90.347 232.750 C 90.979 223.732, 92.885 212.057, 94.877 205 C 95.420 203.075, 96.158 200.375, 96.516 199 C 96.874 197.625, 97.534 195.600, 97.983 194.500 C 98.431 193.400, 99.373 190.925, 100.075 189 C 102.821 181.475, 107.397 172.081, 112.826 162.823 C 117.145 155.456, 119.097 153.027, 121 152.650 C 122.375 152.377, 123.950 152.635, 124.500 153.224 C 125.193 153.965, 125.040 154.068, 124 153.560 C 123.175 153.157, 123.625 153.755, 125 154.891 C 126.375 156.026, 128.175 156.934, 129 156.907 C 130.003 156.875, 129.866 156.611, 128.585 156.109 C 126.564 155.317, 125.582 152.377, 127.037 151.477 C 127.509 151.185, 127.729 151.813, 127.525 152.871 C 127.257 154.264, 127.831 154.926, 129.601 155.264 C 130.947 155.521, 132.289 155.342, 132.583 154.866 C 133.484 153.409, 135.250 153.905, 134.658 155.449 C 134.286 156.418, 134.582 156.714, 135.551 156.342 C 136.375 156.026, 137.007 156.371, 137.015 157.143 C 137.027 158.209, 137.230 158.185, 137.958 157.033 C 138.670 155.908, 138.026 155.158, 135.193 153.817 C 133.162 152.855, 131.085 152.053, 130.579 152.034 C 130.072 152.015, 128.757 151.213, 127.657 150.250 C 126.556 149.287, 125.985 149.063, 126.387 149.750 C 126.832 150.512, 126.551 151, 125.666 151 C 123.818 151, 122.720 148.289, 124.306 147.644 C 125.084 147.327, 124.998 147.130, 124.059 147.079 C 122.987 147.020, 123.096 146.650, 124.484 145.635 C 126.667 144.039, 127.370 139.921, 125.326 140.705 C 124.597 140.985, 123.986 140.603, 123.970 139.857 C 123.949 138.960, 123.592 139.096, 122.915 140.258 C 122.352 141.225, 122.168 142.462, 122.505 143.008 C 122.842 143.554, 122.704 144, 122.197 144 C 121.690 144, 121.453 145.606, 121.669 147.568 C 122.005 150.622, 121.856 150.947, 120.631 149.818 C 119.768 149.023, 119.548 148.074, 120.077 147.426 C 120.559 146.835, 120.677 145.260, 120.339 143.926 C 120.001 142.592, 119.688 140.037, 119.643 138.250 C 119.593 136.244, 119.050 135, 118.225 135 C 117.489 135, 115.546 136.463, 113.907 138.250 M 114.448 141.319 C 114.937 143.628, 116.226 146, 116.990 146 C 117.417 146, 118.009 145.074, 118.305 143.943 C 118.730 142.316, 118.564 142.117, 117.510 142.991 C 116.681 143.680, 115.953 143.733, 115.583 143.134 C 115.255 142.604, 115.530 141.990, 116.193 141.769 C 116.981 141.506, 116.844 141.154, 115.798 140.753 C 114.842 140.386, 114.298 140.614, 114.448 141.319 M 244.405 157.500 C 244.406 166.300, 244.559 169.766, 244.745 165.203 C 244.930 160.639, 244.929 153.439, 244.742 149.203 C 244.555 144.966, 244.404 148.700, 244.405 157.500 M 110.500 147 C 110.160 147.550, 110.385 148, 111 148 C 111.615 148, 111.797 148.520, 111.405 149.155 C 110.953 149.885, 111.131 150.037, 111.889 149.568 C 112.548 149.161, 113.754 149.381, 114.568 150.056 C 115.382 150.732, 116.327 151.006, 116.667 150.666 C 117.008 150.326, 116.547 149.763, 115.643 149.417 C 114.739 149.070, 114 148.159, 114 147.393 C 114 145.794, 111.424 145.505, 110.500 147 M 138.527 157.956 C 138.202 158.482, 137.275 158.659, 136.468 158.349 C 135.554 157.999, 135 158.390, 135 159.387 C 135 160.643, 135.774 160.889, 138.595 160.528 C 141.528 160.152, 141.983 160.316, 141.069 161.417 C 140.224 162.435, 140.299 162.901, 141.377 163.314 C 143.419 164.098, 144.091 163.039, 142.930 160.869 C 142.195 159.495, 142.270 158.996, 143.215 158.985 C 144.118 158.974, 144.055 158.682, 143 158 C 141.078 156.758, 139.278 156.740, 138.527 157.956 M 146.700 160.810 L 148.900 162.739 146.700 163.901 C 145.177 164.705, 145.077 164.893, 146.377 164.514 C 147.409 164.212, 148.917 164.516, 149.728 165.189 C 151.877 166.972, 154 167.048, 154 165.340 C 154 163.579, 151.492 160.841, 150.650 161.683 C 150.327 162.006, 148.811 161.508, 147.281 160.576 L 144.500 158.881 146.700 160.810 M 51.079 187.827 C 48.635 195.819, 46.268 206.004, 45.576 211.500 C 45.299 213.700, 44.615 218.650, 44.056 222.500 C 42.505 233.180, 42.775 261.131, 44.544 273.074 C 50.845 315.612, 68.033 352.458, 96.446 384.330 C 99.716 387.999, 102.878 391, 103.472 391 C 104.067 391, 107.677 387.852, 111.495 384.005 L 118.436 377.011 113.468 371.784 C 110.735 368.910, 108.263 366.320, 107.974 366.029 C 107.685 365.738, 105.891 363.475, 103.989 361 C 102.086 358.525, 99.979 355.925, 99.307 355.222 C 98.636 354.518, 95.631 349.975, 92.631 345.125 C 72.959 313.323, 64 282.206, 64 245.683 C 64 227.382, 65.574 214.695, 69.918 197.982 C 71.935 190.220, 72.459 186.755, 71.654 186.504 C 71.019 186.306, 67.800 185.232, 64.500 184.117 C 53.156 180.285, 53.406 180.216, 51.079 187.827 M 244.440 211.500 C 244.440 226.900, 244.579 233.060, 244.748 225.189 C 244.917 217.319, 244.917 204.719, 244.747 197.189 C 244.578 189.660, 244.439 196.100, 244.440 211.500 M 8.571 201.170 C 7.546 204.358, 5.998 216.597, 4.888 230.287 C 2.247 262.835, 8.660 303.240, 21.587 335.500 C 29.528 355.317, 41.327 376.079, 54.834 393.998 C 64.018 406.184, 84.462 427.353, 94.632 435.209 L 100.728 439.919 102.700 437.709 C 103.785 436.494, 105.642 434.087, 106.826 432.361 L 108.979 429.221 105.239 426.413 C 103.183 424.869, 101.275 423.357, 101 423.053 C 100.725 422.749, 96.813 419.213, 92.307 415.195 C 77.746 402.213, 59.715 379.976, 50.039 363.068 C 36.293 339.048, 26.389 312.854, 22.128 289.250 C 21.508 285.813, 20.447 280.188, 19.771 276.750 C 18.090 268.208, 18.120 223.801, 19.812 214.500 C 22.225 201.241, 22.354 202.282, 18.204 201.569 C 16.167 201.218, 13.262 200.686, 11.749 200.386 C 9.949 200.029, 8.851 200.300, 8.571 201.170 M 250.205 242.375 C 250.912 243.131, 252.134 243.502, 252.922 243.200 C 254.028 242.775, 253.916 242.479, 252.427 241.895 C 249.455 240.731, 248.802 240.872, 250.205 242.375 M 244.406 249.151 C 243.805 250.125, 247.266 249.975, 206 250.817 L 172.500 251.500 172.661 254.500 C 172.750 256.150, 173.086 263.054, 173.409 269.841 C 173.731 276.629, 174.187 282.494, 174.422 282.874 C 174.657 283.254, 175.100 285.576, 175.407 288.033 C 176.297 295.175, 177.018 300.312, 177.505 302.998 C 178.098 306.270, 180.743 308.208, 182.981 307.010 C 183.918 306.509, 187.292 305.817, 190.479 305.473 C 193.665 305.128, 197.288 304.461, 198.529 303.989 C 199.770 303.517, 201.727 303.377, 202.878 303.678 C 204.029 303.979, 205.764 303.899, 206.735 303.500 C 209.232 302.474, 214.547 301.934, 221.344 302.017 C 224.559 302.056, 227.709 301.660, 228.344 301.137 C 228.980 300.613, 232.763 300.256, 236.750 300.343 L 244.001 300.500 244.223 276 L 244.445 251.500 245 275.500 L 245.555 299.500 245.990 280.500 C 246.230 270.050, 246.467 259.011, 246.518 255.969 C 246.569 252.928, 246.903 249.965, 247.261 249.386 C 247.619 248.807, 247.237 248.333, 246.412 248.333 C 245.587 248.333, 244.685 248.701, 244.406 249.151 M 90.667 251.667 C 89.661 252.673, 89.957 259.514, 91.418 269 C 92.228 274.259, 92.375 277.948, 91.804 278.674 C 89.339 281.810, 96.959 305.241, 105.849 321.863 C 113.269 335.734, 111.813 334.735, 118.432 330.501 C 123.178 327.465, 129.722 324.084, 132 323.492 C 132.275 323.420, 135.200 322.118, 138.500 320.599 C 141.800 319.079, 149.675 316.115, 156 314.012 C 168.832 309.746, 167.876 311.008, 166.609 300.001 C 166.261 296.976, 165.737 293.748, 165.445 292.828 C 164.516 289.900, 163.988 281.882, 163.843 268.500 C 163.741 259.038, 163.514 256.861, 163.008 260.500 L 162.314 265.500 162.157 259.691 C 162.038 255.280, 162.301 254.063, 163.250 254.633 C 164.247 255.232, 164.249 255.074, 163.259 253.850 C 162.576 253.006, 162.313 252.020, 162.675 251.658 C 163.037 251.296, 147.133 251, 127.333 251 C 107.533 251, 91.033 251.300, 90.667 251.667 M 234.634 309.699 C 234.510 309.823, 230.604 310.013, 225.954 310.121 C 221.304 310.229, 216.767 310.682, 215.871 311.129 C 214.974 311.576, 211.599 312.015, 208.371 312.104 C 205.142 312.194, 202.050 312.603, 201.500 313.014 C 200.950 313.425, 198.250 314.022, 195.500 314.342 C 192.750 314.661, 189.600 315.138, 188.500 315.401 C 187.400 315.664, 185.262 316.140, 183.750 316.459 C 180.854 317.069, 180.166 319.406, 181.893 322.764 C 182.385 323.719, 183.353 326.975, 184.046 330 C 184.739 333.025, 185.655 336.175, 186.081 337 C 186.508 337.825, 188.462 342.775, 190.423 348 C 195.114 360.497, 202.476 375.098, 206.250 379.388 C 207.213 380.482, 208 381.706, 208 382.107 C 208 383.440, 218.625 394.907, 224.318 399.719 C 227.656 402.540, 235.399 406.471, 240.250 407.806 L 244 408.839 244 359.520 L 244 310.201 239.429 309.838 C 236.916 309.638, 234.758 309.576, 234.634 309.699 M 261.250 309.758 C 258.363 309.949, 256 310.558, 256 311.111 C 256 311.665, 255.642 311.897, 255.205 311.627 C 254.767 311.356, 254.729 313.692, 255.120 316.818 C 255.511 319.943, 255.869 341.971, 255.916 365.769 L 256 409.038 258.750 408.391 C 265.265 406.857, 275.376 400.468, 281.852 393.792 C 290.781 384.586, 292 383.170, 292 382 C 292 381.450, 292.410 381, 292.911 381 C 293.412 381, 294.802 378.975, 296 376.500 C 297.198 374.025, 298.588 372, 299.089 372 C 299.590 372, 299.947 371.663, 299.882 371.250 C 299.548 369.137, 300.122 367.958, 301.170 368.605 C 301.957 369.091, 302.131 368.783, 301.701 367.664 C 301.350 366.749, 301.499 366, 302.031 366 C 302.564 366, 303 365.325, 303 364.500 C 303 363.675, 303.450 363, 304 363 C 304.550 363, 305 361.875, 305 360.500 C 305 359.125, 305.477 358, 306.059 358 C 306.641 358, 306.840 357.550, 306.500 357 C 306.160 356.450, 306.385 356, 307 356 C 307.615 356, 307.840 355.550, 307.500 355 C 307.160 354.450, 307.300 354, 307.811 354 C 309.126 354, 314.232 339.184, 313.388 337.819 C 312.930 337.078, 313.145 336.972, 314.015 337.510 C 314.985 338.109, 315.164 337.868, 314.681 336.612 C 314.319 335.668, 314.420 335.141, 314.905 335.441 C 316.025 336.134, 317.291 331.280, 316.376 329.800 C 315.987 329.171, 316.143 328.970, 316.736 329.337 C 317.922 330.070, 319.458 323.550, 318.474 321.958 C 318.132 321.404, 318.447 321.074, 319.176 321.225 C 319.968 321.390, 320.628 320.391, 320.818 318.739 C 321.091 316.358, 320.712 315.892, 318.068 315.364 C 316.380 315.026, 314.986 314.244, 314.970 313.625 C 314.953 313.006, 314.481 313.288, 313.920 314.250 C 313.359 315.212, 312.360 315.993, 311.700 315.985 C 310.966 315.975, 311.082 315.593, 312 315 C 312.825 314.467, 313.050 313.973, 312.500 313.904 C 311.950 313.834, 309.925 313.602, 308 313.389 C 306.075 313.176, 303.938 312.790, 303.250 312.532 C 302.563 312.274, 301.993 312.611, 301.985 313.281 C 301.974 314.150, 301.727 314.117, 301.123 313.165 C 300.657 312.430, 299.982 311.902, 299.622 311.990 C 299.261 312.079, 297.737 311.912, 296.233 311.619 C 294.730 311.327, 289.909 310.805, 285.519 310.460 C 281.130 310.115, 277.193 309.619, 276.769 309.357 C 276.346 309.096, 275.993 309.471, 275.985 310.191 C 275.975 310.990, 275.683 311.111, 275.235 310.500 C 274.454 309.438, 269.833 309.193, 261.250 309.758 M 245.343 326.500 C 245.346 330.900, 245.522 332.576, 245.733 330.224 C 245.945 327.872, 245.942 324.272, 245.727 322.224 C 245.512 320.176, 245.339 322.100, 245.343 326.500 M 166.802 320.531 C 166.510 320.824, 165.422 321.251, 164.385 321.481 C 154.386 323.702, 119 340.048, 119 342.446 C 119 343.864, 132.198 359.413, 137.968 364.794 C 155.970 381.581, 179.742 395.523, 201.500 402.055 C 203.700 402.715, 206.534 403.648, 207.797 404.128 C 213.113 406.146, 212.842 404.729, 206.484 397.250 C 198.209 387.516, 197.804 387, 198.454 387 C 198.747 387, 198.073 385.949, 196.956 384.664 C 193.196 380.340, 182.512 359.209, 179.935 351 C 179.503 349.625, 178.255 346.137, 177.161 343.250 C 176.067 340.363, 175.414 338, 175.709 338 C 176.004 338, 175.802 337.438, 175.260 336.750 C 174.328 335.567, 173.323 332.251, 172.388 327.276 C 171.280 321.379, 168.867 318.466, 166.802 320.531 M 360.667 323.414 C 361.132 324.737, 360.979 325.105, 360.170 324.605 C 359.526 324.207, 359 324.414, 359 325.063 C 359 325.936, 358.602 325.914, 357.477 324.981 C 356.204 323.924, 356.057 323.986, 356.584 325.359 C 356.931 326.261, 357.841 327, 358.607 327 C 359.373 327, 360 327.388, 360 327.861 C 360 329.013, 364.857 328.040, 365.669 326.726 C 366.039 326.127, 365.822 325.992, 365.155 326.405 C 364.452 326.839, 364 326.442, 364 325.392 C 364 324.443, 363.707 323.960, 363.349 324.318 C 362.991 324.676, 362.090 324.188, 361.346 323.234 C 360.089 321.621, 360.042 321.633, 360.667 323.414 M 366 330.031 C 366 330.529, 365.212 330.655, 364.250 330.309 C 363.288 329.964, 362.777 329.992, 363.115 330.372 C 364.286 331.688, 367.876 331.855, 368.885 330.639 C 369.620 329.752, 369.364 329.378, 367.949 329.271 C 366.877 329.190, 366 329.532, 366 330.031 M 370.033 331.728 C 368.722 333.204, 368.758 333.307, 370.365 332.690 C 371.354 332.311, 372.352 332, 372.582 332 C 372.812 332, 373 331.550, 373 331 C 373 329.529, 371.703 329.847, 370.033 331.728 M 375.279 333.048 C 375.428 335.034, 377.464 335.004, 379.260 332.988 C 380.214 331.917, 380.054 331.931, 378.563 333.048 C 376.844 334.337, 376.692 334.322, 377.217 332.917 C 377.572 331.969, 377.275 331.333, 376.479 331.333 C 375.748 331.333, 375.208 332.105, 375.279 333.048 M 382 334.059 C 382 334.641, 381.581 334.859, 381.069 334.543 C 379.490 333.567, 379.105 335.423, 380.493 337.321 C 381.323 338.456, 382.050 338.729, 382.463 338.060 C 382.823 337.477, 382.615 337, 382 337 C 381.385 337, 381.165 336.543, 381.510 335.984 C 381.856 335.425, 382.552 335.223, 383.058 335.536 C 383.563 335.848, 383.709 335.406, 383.382 334.552 C 382.695 332.764, 382 332.516, 382 334.059 M 387 340.500 C 386.293 341.352, 385.940 342.273, 386.215 342.548 C 386.490 342.823, 387.293 342.352, 388 341.500 C 388.707 340.648, 389.060 339.727, 388.785 339.452 C 388.510 339.177, 387.707 339.648, 387 340.500 M 61.500 356.178 C 60.400 356.792, 59.351 357.415, 59.170 357.561 C 58.988 357.708, 62.018 362.565, 65.904 368.356 C 80.143 389.579, 96.443 406.706, 117.349 422.408 C 123.640 427.133, 129.104 431, 129.490 431 C 129.876 431, 131.386 431.847, 132.846 432.883 C 136.890 435.752, 142.598 438.921, 152.482 443.785 C 180.884 457.762, 207.990 464.527, 240.250 465.689 L 257 466.293 257 463.303 L 257 460.313 240.750 459.650 C 221.446 458.863, 212.131 457.454, 192.135 452.300 C 177.908 448.632, 173.225 446.876, 156.500 438.937 C 121.260 422.209, 92.191 397.002, 69.888 363.834 C 66.621 358.975, 63.848 355.014, 63.724 355.030 C 63.601 355.047, 62.600 355.563, 61.500 356.178 M 124.233 396.763 L 117.965 404.500 121.233 407.341 C 128.022 413.245, 142.984 422.631, 156.643 429.556 C 180.241 441.519, 206.375 448.800, 234.024 451.114 C 246.907 452.192, 269.534 451.563, 270.438 450.100 C 270.677 449.714, 270.354 445.048, 269.722 439.731 L 268.573 430.063 256.536 430.651 C 243.066 431.309, 226.563 429.935, 211.500 426.901 C 201.761 424.939, 184.048 419.530, 177 416.365 C 161.039 409.197, 144.084 399.222, 134 391.066 C 132.625 389.954, 131.275 389.041, 131 389.036 C 130.725 389.031, 127.680 392.508, 124.233 396.763 M 375.500 438.923 C 364.125 446.980, 340.478 458.368, 322.669 464.364 C 298.541 472.488, 275.342 476.277, 249.500 476.314 C 214.705 476.363, 182.527 469.373, 151.838 455.099 C 148.174 453.394, 144.799 452.008, 144.338 452.017 C 143.189 452.040, 138.675 462.664, 139.350 463.757 C 139.807 464.496, 152.710 470.398, 159.500 472.974 C 160.600 473.391, 162.625 474.213, 164 474.801 C 184.677 483.635, 220.423 490, 249.362 490 C 273.808 490, 310.004 483.978, 327.500 477 C 328.600 476.561, 331.075 475.661, 333 475 C 334.925 474.339, 337.400 473.429, 338.500 472.977 C 339.600 472.525, 342.525 471.333, 345 470.328 C 353.250 466.977, 369.822 458.291, 378.929 452.545 L 387.931 446.865 384.324 441.432 C 382.340 438.445, 380.443 436.020, 380.108 436.045 C 379.774 436.069, 377.700 437.364, 375.500 438.923" stroke="none" fill="#11e708" fill-rule="evenodd"/></svg>
